<svg width="28" height="28" viewBox="0 0 28 28" fill="white" xmlns="http://www.w3.org/2000/svg">
<path fill="white" d="M13.9395 20.0583C17.2838 20.0583 20.068 17.2817 20.068 13.9395C20.068 10.5856 17.2838 7.81109 13.9395 7.81109C10.5952 7.81109 7.8207 10.5856 7.8207 13.9395C7.8207 17.288 10.591 20.0583 13.9395 20.0583ZM3.45757 15.3971C4.2582 15.3971 4.91515 14.7401 4.91515 13.9395C4.91515 13.1293 4.2582 12.4819 3.45757 12.4819C2.65695 12.4819 2 13.1293 2 13.9395C2 14.7401 2.65695 15.3971 3.45757 15.3971ZM6.52226 7.97984C7.33249 7.97984 7.97984 7.32288 7.97984 6.52226C7.97984 5.72164 7.33249 5.06469 6.52226 5.06469C5.72375 5.06469 5.06469 5.72164 5.06469 6.52226C5.06469 7.32288 5.72375 7.97984 6.52226 7.97984ZM13.9395 4.91515C14.7401 4.91515 15.3971 4.2582 15.3971 3.45757C15.3971 2.65695 14.7401 2 13.9395 2C13.1389 2 12.4819 2.65695 12.4819 3.45757C12.4819 4.2582 13.1389 4.91515 13.9395 4.91515ZM21.3568 7.97984C22.1574 7.97984 22.8144 7.32288 22.8144 6.52226C22.8144 5.72164 22.1574 5.06469 21.3568 5.06469C20.5562 5.06469 19.8992 5.72164 19.8992 6.52226C19.8992 7.32288 20.5562 7.97984 21.3568 7.97984ZM24.4215 15.3971C25.2221 15.3971 25.879 14.7401 25.879 13.9395C25.879 13.1293 25.2221 12.4819 24.4215 12.4819C23.6208 12.4819 22.9639 13.1293 22.9639 13.9395C22.9639 14.7401 23.6208 15.3971 24.4215 15.3971ZM21.3568 22.8144C22.1574 22.8144 22.8144 22.1553 22.8144 21.3568C22.8144 20.5466 22.1574 19.8992 21.3568 19.8992C20.5562 19.8992 19.8992 20.5466 19.8992 21.3568C19.8992 22.1553 20.5562 22.8144 21.3568 22.8144ZM13.9395 25.879C14.7401 25.879 15.3971 25.2221 15.3971 24.4215C15.3971 23.6112 14.7401 22.9639 13.9395 22.9639C13.1389 22.9639 12.4819 23.6112 12.4819 24.4215C12.4819 25.2221 13.1389 25.879 13.9395 25.879ZM6.52226 22.8144C7.33249 22.8144 7.97984 22.1553 7.97984 21.3568C7.97984 20.5466 7.33249 19.8992 6.52226 19.8992C5.72375 19.8992 5.06469 20.5466 5.06469 21.3568C5.06469 22.1553 5.72375 22.8144 6.52226 22.8144Z" />
</svg>
