<svg width="29" height="21" viewBox="0 0 29 21" fill="white" xmlns="http://www.w3.org/2000/svg">
<path d="M9.10664 20.9121H23.6393C26.7009 20.9121 28.8028 18.7385 28.8028 15.9722C28.8028 13.6277 27.1748 11.651 24.956 11.1319C24.7043 8.23031 22.3005 5.91 19.3319 5.91C17.4197 5.91 15.7399 6.83812 14.7005 8.33906C14.224 8.19609 13.7817 8.1225 13.2776 8.1225C11.0002 8.1225 9.08742 9.75468 8.68547 11.9503C6.31336 12.105 4.47352 14.0541 4.47352 16.4058C4.47352 18.9314 6.35273 20.9121 9.10664 20.9121ZM3.24704 14.6463C3.81657 12.3537 5.41477 10.9015 7.51337 10.5157C8.38266 7.7939 10.7077 6.37992 13.3439 6.37992C13.6622 6.37992 13.9612 6.41508 14.2369 6.45234C15.307 4.83844 17.0271 4.095 19.1555 4.15617C18.6937 3.06656 17.4213 2.17336 15.5991 2.17336C15.0567 2.17336 14.603 2.27461 14.1129 2.42273C13.0268 0.893205 11.3894 0 9.49968 0C6.55031 0 4.09851 2.3107 3.8468 5.21437C1.61297 5.74851 0 7.71773 0 10.0526C0 12.0581 1.11891 13.8267 3.24704 14.6463Z" fill="white" />
</svg>
