<svg width="28" height="28" viewBox="0 0 28 28" fill="white" xmlns="http://www.w3.org/2000/svg">
<path d="M6.034 23.991L7.54478 21.3699C7.77798 20.9931 7.65868 20.545 7.2797 20.3192C6.89861 20.1032 6.47064 20.2234 6.23322 20.6162L4.71283 23.2564C4.49884 23.612 4.60431 24.0601 4.99501 24.2858C5.3665 24.5019 5.82001 24.3561 6.034 23.991ZM9.71251 27.2818L11.2212 24.6704C11.4448 24.2839 11.3372 23.8337 10.9561 23.6176C10.5654 23.3919 10.1374 23.5217 9.90962 23.9146L8.38923 26.5473C8.17525 26.9125 8.28072 27.3585 8.66181 27.5746C9.0429 27.7907 9.49853 27.6566 9.71251 27.2818ZM15.3642 23.9814L16.8729 21.3603C17.0965 20.9835 16.9793 20.5353 16.5982 20.3075C16.2171 20.0914 15.7891 20.2138 15.5613 20.6066L14.0409 23.2468C13.8291 23.6024 13.9249 24.0484 14.3135 24.2762C14.6946 24.4923 15.1502 24.3465 15.3642 23.9814ZM19.0406 27.2701L20.5493 24.6608C20.7729 24.2743 20.6557 23.8241 20.2746 23.608C19.8935 23.3823 19.4677 23.5121 19.2377 23.9049L17.7098 26.5356C17.5055 26.9028 17.6013 27.3489 17.992 27.5649C18.3731 27.781 18.8266 27.647 19.0406 27.2701Z" fill="white" />
<path d="M5.67866 18.3422H20.2786C24.2004 18.3422 27.1336 15.3609 27.1336 11.6503C27.1336 7.82971 24.0593 4.99589 20.0318 4.99589C18.5923 2.16464 15.9178 0.250732 12.3666 0.250732C7.87593 0.250732 4.23257 3.70565 3.79101 8.06597C1.63828 8.72503 0 10.5987 0 13.124C0 16.0279 2.12531 18.3422 5.67866 18.3422Z" fill="white" />
</svg>
