<svg width="31" height="30" viewBox="0 0 31 30" fill="white" xmlns="http://www.w3.org/2000/svg">
<path fill="white" d="M12.9396 17.1558C14.2694 17.1558 15.3321 16.1048 15.3321 14.775C15.3321 13.459 14.2556 12.3921 12.9396 12.3921C11.647 12.3921 10.5588 13.4728 10.5588 14.775C10.5588 16.0889 11.6353 17.1558 12.9396 17.1558Z" />
<path fill="white" d="M12.9396 10.3001C14.1066 10.3001 15.034 9.37262 15.034 8.20567C15.034 7.06215 14.0927 6.12091 12.9396 6.12091C11.8099 6.12091 10.8548 7.07387 10.8548 8.20567C10.8548 9.35879 11.7961 10.3001 12.9396 10.3001ZM7.2928 13.5682C8.46186 13.5682 9.37756 12.6504 9.37756 11.4834C9.37756 10.3303 8.4342 9.39864 7.2928 9.39864C6.161 9.39864 5.20593 10.3537 5.20593 11.4834C5.20593 12.6366 6.13967 13.5682 7.2928 13.5682ZM18.5981 13.5682C19.7651 13.5682 20.6829 12.6504 20.6829 11.4834C20.6829 10.3303 19.7416 9.39864 18.5981 9.39864C17.4663 9.39864 16.5134 10.3537 16.5134 11.4834C16.5134 12.6387 17.4429 13.5682 18.5981 13.5682ZM7.2928 20.1513C8.45014 20.1513 9.37756 19.2335 9.37756 18.0666C9.37756 16.9113 8.43842 15.9701 7.2928 15.9701C6.161 15.9701 5.20593 16.9251 5.20593 18.0666C5.20593 19.208 6.14928 20.1513 7.2928 20.1513ZM18.5981 20.1513C18.8618 20.1513 19.1084 20.0819 19.324 19.9741L20.5983 17.6787V17.6306C20.4241 16.6917 19.5996 15.9701 18.5981 15.9701C17.4642 15.9701 16.5134 16.923 16.5134 18.0666C16.5134 19.2122 17.4525 20.1513 18.5981 20.1513ZM12.9396 23.429C14.1066 23.429 15.034 22.5016 15.034 21.3347C15.034 20.1891 14.0948 19.2499 12.9396 19.2499C11.8099 19.2499 10.8548 20.2029 10.8548 21.3347C10.8548 22.4878 11.7961 23.429 12.9396 23.429Z" />
<path fill="white" d="M12.9396 3.28241C13.8755 3.28241 14.5856 2.57015 14.5856 1.64601C14.5856 0.735701 13.8499 0 12.9396 0C12.0527 0 11.3032 0.74742 11.3032 1.64601C11.3032 2.55632 12.0389 3.28241 12.9396 3.28241ZM7.29281 6.54843C8.21694 6.54843 8.9271 5.82655 8.9271 4.90242C8.9271 3.99211 8.20101 3.26601 7.29281 3.26601C6.39421 3.26601 5.6564 4.00382 5.6564 4.90242C5.6564 5.81273 6.3825 6.54843 7.29281 6.54843ZM18.5981 6.54843C19.5223 6.54843 20.2345 5.82655 20.2345 4.90242C20.2345 3.99211 19.5084 3.26601 18.5981 3.26601C17.6995 3.26601 16.9617 4.00382 16.9617 4.90242C16.9617 5.81484 17.6857 6.54843 18.5981 6.54843ZM1.6439 9.85171C2.56804 9.85171 3.2803 9.12983 3.2803 8.2057C3.2803 7.29539 2.5446 6.56929 1.6439 6.56929C0.74742 6.56929 0 7.3071 0 8.2057C0 9.11601 0.733592 9.85171 1.6439 9.85171ZM24.2098 9.85171C25.1318 9.85171 25.844 9.12773 25.844 8.2057C25.844 7.29539 25.1158 6.56929 24.2098 6.56929C23.3112 6.56929 22.5637 7.31671 22.5637 8.2057C22.5637 9.11812 23.2973 9.85171 24.2098 9.85171ZM1.6439 16.4114C2.56804 16.4114 3.2803 15.6991 3.2803 14.775C3.2803 13.8647 2.5446 13.1386 1.6439 13.1386C0.74742 13.1386 0 13.8764 0 14.775C0 15.6853 0.733592 16.4114 1.6439 16.4114ZM25.7278 15.3696C25.8014 15.1779 25.844 14.9775 25.844 14.775C25.844 13.8647 25.1158 13.1386 24.2098 13.1386C23.3112 13.1386 22.5637 13.8764 22.5637 14.775C22.5637 14.9583 22.6043 15.1512 22.6821 15.36C23.1473 15.1334 23.6637 14.9939 24.2098 14.9939C24.7441 14.9939 25.2722 15.1334 25.7278 15.3696ZM1.6439 22.9807C2.56593 22.9807 3.2803 22.2748 3.2803 21.3347C3.2803 20.4319 2.54671 19.6983 1.6439 19.6983C0.745311 19.6983 0 20.4457 0 21.3347C0 22.2546 0.723983 22.9807 1.6439 22.9807ZM7.29281 26.284C8.21694 26.284 8.9271 25.5717 8.9271 24.6476C8.9271 23.7351 8.20523 23.0016 7.29281 23.0016C6.39421 23.0016 5.6564 23.749 5.6564 24.6476C5.6564 25.5579 6.3825 26.284 7.29281 26.284ZM12.9396 29.5404C13.8712 29.5404 14.5856 28.826 14.5856 27.904C14.5856 26.9915 13.852 26.2676 12.9396 26.2676C12.0527 26.2676 11.3032 27.0054 11.3032 27.904C11.3032 28.8143 12.0389 29.5404 12.9396 29.5404Z" />
<path fill="white" d="M19.128 29.0688H29.268C30.2723 29.0688 30.9251 28.3448 30.9251 27.431C30.9251 27.1509 30.8547 26.8805 30.6982 26.6142L25.6165 17.5439C25.2949 16.9753 24.7507 16.7069 24.2098 16.7069C23.6475 16.7069 23.0916 16.9795 22.7817 17.5439L17.7117 26.6238C17.5551 26.8805 17.4806 27.1509 17.4806 27.431C17.4806 28.3448 18.1258 29.0688 19.128 29.0688Z" />
<path fill="white" d="M24.1979 27.296C23.6104 27.296 23.144 26.8359 23.144 26.2493C23.144 25.6744 23.6221 25.2164 24.1979 25.2164C24.7909 25.2164 25.2615 25.6861 25.2615 26.2493C25.2615 26.8359 24.7951 27.296 24.1979 27.296ZM24.2075 24.4277C23.7552 24.4277 23.4306 24.119 23.4168 23.6826L23.3209 20.4272C23.305 19.9066 23.669 19.5469 24.2075 19.5469C24.7344 19.5469 25.1005 19.9045 25.0846 20.4272L24.9887 23.6826C24.9749 24.119 24.6578 24.4277 24.2075 24.4277Z" />
</svg>
