<svg width="31" height="22" viewBox="0 0 31 22" fill="white" xmlns="http://www.w3.org/2000/svg">
<path fill="white" d="M21.3738 13.4958C21.3738 10.008 18.5048 7.11984 15.0234 7.11984C11.5303 7.11984 8.66133 10.008 8.66133 13.4958C8.66133 14.2584 8.80969 14.9806 9.0893 15.6429H20.9459C21.2255 14.9806 21.3738 14.2584 21.3738 13.4958ZM2.62101 14.1089L5.33719 14.111C5.98242 14.111 6.47742 13.6448 6.46781 13.0711C6.4582 12.4952 5.97281 12.0333 5.33719 12.0333H2.62101C1.97578 12.0333 1.5 12.4952 1.5 13.0711C1.5 13.6448 1.97789 14.1089 2.62101 14.1089ZM7.43415 7.40414C7.88344 7.86094 8.5711 7.87687 8.96813 7.46813C9.36726 7.06149 9.36516 6.38344 8.90836 5.93415L6.98531 4.01531C6.52429 3.54469 5.86969 3.5618 5.46094 3.96094C5.05219 4.35797 5.04258 5.0264 5.5132 5.48742L7.43415 7.40414ZM21.067 7.46813C21.4737 7.86726 22.1517 7.86094 22.601 7.40414L24.522 5.48742C24.9926 5.0264 24.9734 4.36758 24.5742 3.96094C24.1772 3.55219 23.5109 3.54469 23.0498 4.01531L21.1268 5.93415C20.67 6.38344 20.6583 7.0711 21.067 7.46813ZM24.698 14.1089H27.4141C28.0615 14.1089 28.5352 13.6448 28.5352 13.0711C28.5352 12.4952 28.0615 12.0333 27.4141 12.0333H24.698C24.0645 12.0333 23.5577 12.4952 23.5673 13.0711C23.577 13.6448 24.0666 14.1089 24.698 14.1089ZM15.0234 4.96781C15.5876 4.9582 16.0591 4.47071 16.0591 3.83719V1.12101C16.0591 0.47367 15.5876 0 15.0234 0C14.4476 0 13.976 0.47367 13.976 1.12101V3.83719C13.976 4.47071 14.4476 4.97742 15.0234 4.96781Z" />
<path fill="white" d="M1.16296 19.3489H28.8722C29.5073 19.3489 30.0352 18.8427 30.0352 18.2427C30.0352 17.6342 29.5095 17.1364 28.8722 17.1364H1.16296C0.52781 17.1364 0 17.6406 0 18.2427C0 18.8363 0.529919 19.3489 1.16296 19.3489Z" />
</svg>
