<svg width="26" height="23" viewBox="0 0 26 23" fill="none" xmlns="http://www.w3.org/2000/svg">
<path d="M4.88112 8.1368C10.174 8.1368 12.9814 3.71883 17.8409 3.71883C18.9746 3.71883 19.9667 3.97242 21.1367 4.64156C21.6891 4.94812 22.2338 4.75852 22.5263 4.34367C22.872 3.84586 22.7925 3.12868 22.0814 2.71032C20.7446 1.94228 19.3578 1.57056 17.8409 1.57056C12.4615 1.57056 9.67339 5.99064 4.88112 5.99064C3.73784 5.99064 2.74573 5.73493 1.57573 5.06579C1.0212 4.75712 0.474403 4.95095 0.186124 5.37962C-0.138249 5.87743 -0.0684077 6.59039 0.633075 6.99914C1.96784 7.76508 3.35464 8.1368 4.88112 8.1368ZM4.89284 14.4298C9.43011 14.4298 12.1957 11.0646 16.0639 10.2708C16.4904 9.46336 16.9266 8.67727 17.3532 7.87196C12.188 8.16868 9.56815 12.2815 4.89284 12.2815C3.74956 12.2815 2.75956 12.0162 1.58744 11.347C1.04252 11.0384 0.486122 11.2322 0.209561 11.6609C-0.124421 12.1587 -0.0566888 12.8716 0.644793 13.2804C1.97956 14.0463 3.37596 14.4298 4.89284 14.4298ZM4.88112 20.711C8.37589 20.711 10.8178 18.7115 13.5129 17.4405C13.4269 16.7878 13.5612 15.8051 13.8059 15.0082C10.7267 16.279 8.33136 18.5627 4.88112 18.5627C3.73784 18.5627 2.74573 18.307 1.57573 17.6283C1.0212 17.3196 0.474403 17.5134 0.186124 17.9421C-0.138249 18.4399 -0.0684077 19.1625 0.633075 19.5616C1.96784 20.3372 3.35464 20.711 4.88112 20.711Z" />
<path d="M20.2742 22.2731C23.1436 22.2731 25.44 20.0332 25.44 17.2223C25.44 15.6736 24.6678 14.1525 24.004 12.9145L21.3544 7.97651C21.1106 7.51667 20.7403 7.30597 20.2742 7.30597C19.7963 7.30597 19.4281 7.51878 19.1843 7.97862L16.5443 12.9145C15.8806 14.1525 15.1179 15.6736 15.1179 17.2223C15.1179 20.0332 17.4047 22.2731 20.2742 22.2731Z" />
</svg>
