<?xml version="1.0" encoding="iso-8859-1"?>
<!-- Generator: Adobe Illustrator 16.0.0, SVG Export Plug-In . SVG Version: 6.00 Build 0)  -->
<!DOCTYPE svg PUBLIC "-//W3C//DTD SVG 1.1//EN" "http://www.w3.org/Graphics/SVG/1.1/DTD/svg11.dtd">
<svg version="1.1" id="Capa_1" xmlns="http://www.w3.org/2000/svg" xmlns:xlink="http://www.w3.org/1999/xlink" x="0px" y="0px"
	 width="855.492px" height="855.492px" viewBox="0 0 855.492 855.492" fill="white" style="enable-background:new 0 0 855.492 855.492;"
	 xml:space="preserve">
<g>
	<path fill="white" d="M270.436,853.938c8.801,5.399,19.101-4.301,14-13.301c-13.399-23.8-21-51.199-21-80.5c0-62,34.301-111.6,84.801-144.6
		c44.699-29.2,32.5-66.9,39.899-111.8c4.4-26.601,21-50.8,34.9-66.9c5.6-6.5,16.1-3.399,17.5,5c8.2,50.4,73.6,136.2,111.3,192.2
		c43.4,64.6,40.6,121.5,40.3,125.8c0,0.2,0,0.4,0,0.601c-0.1,29.1-7.7,56.399-21,80c-5.1,9,5.2,18.8,14,13.3
		c69.4-42.9,119.4-113.7,136.101-193.601c13.3-63.6,5.8-129.3-15.7-190.1c-12.7-35.9-30.2-70-51.5-101.6
		c-68.9-102.5-188.8-259.601-203.2-351.5c-2.7-16.9-24.1-22.9-35.2-9.9c-0.2,0.2-20.6,22.7-33.399,47.6
		c-10.9,21.3-19.801,43.6-24.9,66.9c-9.6,43.9-7.9,90.9,3.1,134.4c3.601,14.2,8.2,28.1,13.801,41.6
		c5.399,13,11.199,26.1,12.199,40.3c1.601,26.5-22.399,49.4-48.399,49.4c-23.3,0-42.601-14-47.601-40.4
		c-1.3-6.8-8.899-10.399-14.899-6.899c-88.5,52.1-147.9,148.399-147.9,258.5C127.836,706.438,184.836,801.137,270.436,853.938z"/>
</g>
<g>
</g>
<g>
</g>
<g>
</g>
<g>
</g>
<g>
</g>
<g>
</g>
<g>
</g>
<g>
</g>
<g>
</g>
<g>
</g>
<g>
</g>
<g>
</g>
<g>
</g>
<g>
</g>
<g>
</g>
</svg>
