<svg width="25" height="22" viewBox="0 0 25 22" fill="white" xmlns="http://www.w3.org/2000/svg">
<path fill="white" d="M1.1925 7.23185C2.88 6.70333 4.62821 6.43052 6.29227 6.43052C8.43375 6.43052 10.0221 6.77364 12.0591 6.77364C14.2022 6.77364 15.5801 5.3081 15.5801 3.38365C15.5801 1.42498 14.0794 0.00537109 12.2114 0.00537109C10.8649 0.00537109 9.6593 0.844902 9.13759 1.98139C8.92056 2.41873 9.00774 2.91466 9.45376 3.15513C9.87938 3.38271 10.4018 3.24232 10.6774 2.72716C10.9289 2.16747 11.528 1.73458 12.2114 1.73458C13.1377 1.73458 13.8509 2.3763 13.8509 3.38365C13.8509 4.3931 13.1527 5.05404 12.0591 5.05404C10.1348 5.05404 8.5125 4.70881 6.29227 4.70881C4.38633 4.70881 2.43797 5.04232 0.671021 5.58678C0.13032 5.74006 -0.095147 6.21467 0.0368055 6.67216C0.170867 7.14138 0.614537 7.39896 1.1925 7.23185ZM19.5691 12.8449C22.346 12.8449 24.3239 11.0662 24.3239 8.58771C24.3239 6.14857 22.4482 4.36357 20.0998 4.36357C18.0124 4.36357 16.402 5.79584 16.0533 7.70201C15.9471 8.23427 16.2145 8.68427 16.6786 8.78083C17.1628 8.88161 17.6137 8.59942 17.7455 8.00435C17.9616 6.86036 18.9431 6.08317 20.0998 6.08317C21.4852 6.08317 22.5947 7.11161 22.5947 8.58771C22.5947 10.0894 21.4043 11.1253 19.5691 11.1253C16.0055 11.1253 12.1141 9.08623 7.41821 9.08623C4.99571 9.08623 2.76938 9.47083 0.668912 10.1953C0.13782 10.3837 -0.095147 10.8445 0.0368055 11.2999C0.172977 11.7712 0.632584 12.0384 1.19672 11.8437C3.12586 11.1276 5.12438 10.8176 7.41821 10.8176C12.0708 10.8176 15.582 12.8449 19.5691 12.8449ZM12.0708 21.2184C13.9345 21.2184 15.3691 19.8298 15.3691 17.8732C15.3691 15.0443 12.4795 13.4637 7.21313 13.4637C5.03766 13.4637 2.67797 13.8813 0.668912 14.561C0.13782 14.7494 -0.095147 15.2102 0.0368055 15.6635C0.172977 16.1348 0.632584 16.4041 1.19672 16.2094C3.05368 15.5477 5.11852 15.1929 7.21313 15.1929C11.3911 15.1929 13.6495 16.2297 13.6495 17.8732C13.6495 18.8805 12.9523 19.4988 12.0708 19.4988C11.2209 19.4988 10.688 18.9326 10.507 18.022C10.3903 17.5441 9.99797 17.1956 9.46243 17.2793C8.90555 17.363 8.68829 17.8715 8.80922 18.3984C9.09399 19.983 10.3242 21.2184 12.0708 21.2184Z" />
</svg>
