<svg width="28" height="29" viewBox="0 0 28 29" fill="white" xmlns="http://www.w3.org/2000/svg">
<path fill="white" d="M3.09864 24.3755C3.47973 24.5916 3.93325 24.4554 4.14723 24.0806L5.65801 21.4692C5.88161 21.0827 5.76231 20.6346 5.38122 20.4068C5.00223 20.1907 4.57427 20.3227 4.34645 20.7038L2.82606 23.3461C2.61208 23.7113 2.70794 24.1573 3.09864 24.3755ZM5.36364 27.6546C5.74473 27.8611 6.20036 27.727 6.41223 27.3598L7.92301 24.7388C8.14661 24.364 8.02942 23.9138 7.64833 23.6881C7.26723 23.4624 6.83927 23.5922 6.61145 23.985L5.08145 26.6156C4.87708 26.9808 4.97294 27.4289 5.36364 27.6546ZM19.4426 24.3755C19.8216 24.5916 20.2772 24.4554 20.4912 24.0806L21.9998 21.4692C22.2234 21.0827 22.1062 20.6346 21.7348 20.4068C21.3441 20.1907 20.9182 20.3227 20.6883 20.7038L19.17 23.3461C18.956 23.7113 19.0519 24.1573 19.4426 24.3755ZM21.7076 27.6546C22.0887 27.8611 22.5422 27.727 22.7562 27.3598L24.2669 24.7388C24.4905 24.364 24.3712 23.9138 23.9998 23.6881C23.6112 23.4624 23.1832 23.5922 22.9554 23.985L21.435 26.6156C21.221 26.9808 21.3169 27.4289 21.7076 27.6546Z" />
<path fill="white" d="M5.67866 18.4801H20.2786C24.2004 18.4801 27.1336 15.4989 27.1336 11.7883C27.1336 7.96777 24.0593 5.13395 20.0318 5.13395C18.5923 2.30269 15.9178 0.388794 12.3666 0.388794C7.87593 0.388794 4.23257 3.84371 3.79101 8.20402C1.63828 8.86309 0 10.7366 0 13.262C0 16.1659 2.12531 18.4801 5.67866 18.4801ZM16.5539 22.8088H13.803L13.7648 23.3994L15.1903 20.6678C15.3288 20.41 15.2233 20.2087 14.9634 20.2087H12.2137C11.8739 20.2087 11.7567 20.3258 11.6512 20.574L10.0259 24.2765C9.89906 24.5673 10.0237 24.7452 10.3305 24.7452H12.5913L12.7162 24.0011L10.8211 28.6042C10.7583 28.7587 10.7955 28.8876 10.901 28.9344C11.0065 28.9813 11.1354 28.9462 11.2664 28.8194L16.7393 23.399C16.9917 23.1454 16.898 22.8088 16.5539 22.8088Z" />
</svg>
