<svg width="35" height="28" fill="none" viewBox="0 0 35 28" xmlns="http://www.w3.org/2000/svg">
<path d="M8.05781 25.7524C8.72741 25.7524 9.29483 25.4761 10.0976 24.7777L14.8444 20.5507L13.5651 18.6455L8.62897 23.2446V19.9627C8.62897 19.2588 8.1989 18.9056 7.6221 18.9056H5.42976C3.47366 18.9056 2.29592 17.809 2.29592 15.7706V5.34794C2.29592 3.30747 3.47366 2.20121 5.42976 2.20121H21.9712C23.9273 2.20121 25.1051 3.30747 25.1051 5.34794V6.82404H27.401V5.10678C27.401 1.92678 25.4573 0.0288086 22.2424 0.0288086H5.15859C2.05359 0.0288086 0 1.92678 0 5.10678V16.0664C0 19.2117 2.02195 21.0705 5.08055 21.0705H6.56414V24.0959C6.56414 25.1205 7.11187 25.7524 8.05781 25.7524Z" fill="white"/>
<path d="M27.4998 27.1684C28.4265 27.1684 28.9742 26.5056 28.9742 25.4905V22.7961H29.5023C32.4648 22.7961 34.4387 20.9853 34.4387 17.9457V10.8153C34.4387 7.72178 32.4332 5.88147 29.4221 5.88147H17.6657C14.5468 5.88147 12.6587 7.72178 12.6587 10.8153V17.9457C12.6587 20.9949 14.5468 22.7961 17.6657 22.7961H21.6622L25.57 26.1456C26.3418 26.8034 26.8804 27.1684 27.4998 27.1684ZM26.919 24.6549L23.2353 21.3137C22.7181 20.8466 22.3018 20.649 21.6193 20.649H17.9115C16.0515 20.649 14.9218 19.6196 14.9218 17.6656L14.9314 11.0216C14.9314 9.07927 16.0515 8.03067 17.9115 8.03067H29.188C31.0363 8.03067 32.166 9.07927 32.166 11.0216V17.6656C32.166 19.6196 31.0363 20.649 29.188 20.649H27.9184C27.3491 20.649 26.919 21.0001 26.919 21.6964V24.6549ZM23.5625 15.6948C24.1405 15.6948 24.4705 15.369 24.5003 14.7463L24.6547 10.9442C24.6845 10.2842 24.1979 9.83279 23.5508 9.83279C22.892 9.83279 22.415 10.2746 22.4448 10.9346L22.5993 14.7505C22.629 15.3594 22.9536 15.6948 23.5625 15.6948ZM23.5529 19.2678C24.2586 19.2678 24.8232 18.7639 24.8232 18.076C24.8232 17.3956 24.264 16.8917 23.5529 16.8917C22.8313 16.8917 22.2763 17.4053 22.2763 18.076C22.2763 18.7543 22.8409 19.2678 23.5529 19.2678Z" fill="white"/>
</svg>
