<svg width="25" height="28" viewBox="0 0 25 28" fill="white" xmlns="http://www.w3.org/2000/svg">
<path fill="white" d="M10.4477 25.1456C14.7963 25.1456 18.3935 22.8801 19.9943 19.0994C20.2017 18.607 20.1804 18.1826 19.9293 17.9379C19.721 17.7283 19.3317 17.7007 18.919 17.8655C17.94 18.2669 16.7794 18.4882 15.4788 18.4882C10.2208 18.4882 6.7842 15.1516 6.7842 10.0139C6.7842 8.66225 7.05561 7.14444 7.48147 6.26413C7.71232 5.78015 7.70389 5.37257 7.48686 5.12788C7.25811 4.85976 6.83366 4.82249 6.3028 5.02992C2.54484 6.52288 0 10.4165 0 14.8132C0 20.7236 4.35679 25.1456 10.4477 25.1456Z" />
<path fill="white" d="M19.4733 13.8335C19.7191 13.8335 19.8904 13.6643 19.9181 13.4067C20.3006 10.301 20.4403 10.2105 23.6055 9.70757C23.8811 9.6682 24.0483 9.5182 24.0483 9.27234C24.0483 9.02859 23.8811 8.86898 23.6566 8.8275C20.4574 8.20547 20.3006 8.22984 19.9181 5.12835C19.8904 4.87078 19.7191 4.70156 19.4733 4.70156C19.237 4.70156 19.0657 4.87078 19.0284 5.11664C18.6321 8.27765 18.5233 8.37679 15.292 8.8275C15.0696 8.85515 14.9004 9.02859 14.9004 9.27234C14.9004 9.50648 15.0675 9.66609 15.2899 9.70757C18.5297 10.3392 18.6225 10.3266 19.0284 13.4301C19.0657 13.6643 19.2412 13.8335 19.4733 13.8335ZM13.8485 5.75226C14.0039 5.75226 14.089 5.65758 14.1145 5.5118C14.4609 3.56742 14.4513 3.52898 16.4735 3.1507C16.6256 3.12304 16.7278 3.03047 16.7278 2.87508C16.7278 2.7218 16.6256 2.62711 16.4798 2.60156C14.4471 2.19141 14.5026 2.15508 14.1145 0.242577C14.089 0.094687 14.0039 0 13.8485 0C13.6931 0 13.5984 0.094687 13.5729 0.240468C13.1901 2.17195 13.2478 2.21461 11.2193 2.60156C11.066 2.625 10.9692 2.7218 10.9692 2.87508C10.9692 3.03047 11.0639 3.12304 11.2172 3.1507C13.2478 3.56086 13.2244 3.57797 13.5729 5.51391C13.5984 5.65758 13.6931 5.75226 13.8485 5.75226Z" />
</svg>
