<svg width="16" height="27" viewBox="0 0 16 27" fill="none" xmlns="http://www.w3.org/2000/svg">
<path d="M6.41694 26.3998C9.9417 26.3998 12.7966 23.5563 12.7966 20.0294C12.7966 18.2081 12.0658 16.62 10.6638 15.3333C10.4219 15.1106 10.3676 14.9763 10.3676 14.6332L10.3772 4.29468C10.3772 1.7407 8.76326 0 6.41694 0C4.04086 0 2.42156 1.7407 2.42156 4.29468L2.43117 14.6332C2.43117 14.9763 2.38641 15.1127 2.13492 15.3333C0.734063 16.6095 0 18.2081 0 20.0294C0 23.5563 2.86664 26.3998 6.41694 26.3998ZM6.41694 24.3968C3.98249 24.3968 2.02639 22.4194 2.02639 20.0041C2.02639 18.5203 2.72202 17.2214 3.95788 16.3957C4.31905 16.1538 4.45757 15.9396 4.45757 15.4612V4.3671C4.45757 2.96718 5.25561 2.02428 6.41694 2.02428C7.55061 2.02428 8.34866 2.96718 8.34866 4.3671V15.4612C8.34866 15.9396 8.48929 16.1538 8.84835 16.3957C10.0842 17.2214 10.7819 18.5203 10.7819 20.0041C10.7819 22.4194 8.81624 24.3968 6.41694 24.3968Z" />
<path d="M12.6002 4.55812H15.1748C15.6061 4.55812 15.8979 4.23117 15.8979 3.8468C15.8979 3.46031 15.6061 3.13336 15.1748 3.13336H12.6002C12.169 3.13336 11.8772 3.46031 11.8772 3.8468C11.8772 4.23117 12.169 4.55812 12.6002 4.55812ZM12.6002 7.81524H15.1748C15.6061 7.81524 15.8979 7.48828 15.8979 7.1018C15.8979 6.71532 15.6061 6.39047 15.1748 6.39047H12.6002C12.169 6.39047 11.8772 6.71532 11.8772 7.1018C11.8772 7.48828 12.169 7.81524 12.6002 7.81524ZM12.6002 11.0829H15.1748C15.6061 11.0829 15.8979 10.7559 15.8979 10.3694C15.8979 9.98508 15.6061 9.64852 15.1748 9.64852H12.6002C12.169 9.64852 11.8772 9.98508 11.8772 10.3694C11.8772 10.7559 12.169 11.0829 12.6002 11.0829ZM12.6002 14.3505H15.1748C15.6061 14.3505 15.8979 14.0236 15.8979 13.6371C15.8979 13.2431 15.6061 12.9162 15.1748 12.9162H12.6002C12.169 12.9162 11.8772 13.2431 11.8772 13.6371C11.8772 14.0236 12.169 14.3505 12.6002 14.3505Z" />
<path d="M6.40308 22.8148C7.95863 22.8148 9.2116 21.5618 9.2116 19.9945C9.2116 18.9056 8.59683 18.0117 7.70293 17.5259C7.33215 17.3266 7.20746 17.186 7.20746 16.6181V4.09335C7.20746 3.52874 6.84629 3.16968 6.40519 3.16968C5.9566 3.16968 5.60504 3.52874 5.60504 4.09335V16.6181C5.60504 17.186 5.47613 17.3266 5.10324 17.5259C4.21144 18.0117 3.59668 18.9056 3.59668 19.9945C3.59668 21.5618 4.84965 22.8148 6.40308 22.8148Z" />
</svg>
