<svg width="28" height="28" viewBox="0 0 28 28" fill="none" xmlns="http://www.w3.org/2000/svg">
<path fill="white" d="M3.70761 27.3542L7.14026 21.4168C7.36386 21.0207 7.24667 20.5821 6.86558 20.3661C6.48448 20.1403 6.05441 20.2627 5.8287 20.663L2.38644 26.6196C2.18206 26.9773 2.27792 27.4233 2.65902 27.649C3.04011 27.8651 3.49362 27.731 3.70761 27.3542ZM8.38761 27.3521L11.8106 21.4146C12.0342 21.0185 11.9245 20.58 11.5455 20.3639C11.1548 20.1361 10.7248 20.2606 10.4991 20.6609L7.06433 26.6175C6.86206 26.9731 6.94831 27.4212 7.33902 27.6469C7.718 27.863 8.17362 27.7268 8.38761 27.3521ZM13.0474 27.3542L16.4705 21.4168C16.6941 21.0207 16.5844 20.5821 16.2054 20.3661C15.8147 20.1403 15.3846 20.2627 15.1589 20.663L11.7241 26.6196C11.5219 26.9773 11.6081 27.4233 11.9988 27.649C12.3778 27.8651 12.8334 27.731 13.0474 27.3542ZM17.6869 27.3617L21.1387 21.3954C21.3527 21.0185 21.2451 20.5587 20.8641 20.3639C20.4926 20.1575 20.0529 20.2606 19.8368 20.6492L16.4041 26.5983C16.1805 26.9731 16.286 27.4212 16.6575 27.6469C17.0194 27.863 17.4825 27.7268 17.6869 27.3617Z" />
<path fill="white" d="M5.67866 18.3793H20.2786C24.2004 18.3793 27.1336 15.398 27.1336 11.6874C27.1336 7.86683 24.0593 5.033 20.0318 5.033C18.5923 2.20175 15.9178 0.287842 12.3666 0.287842C7.87593 0.287842 4.23257 3.74277 3.79101 8.10308C1.63828 8.76214 0 10.6358 0 13.1611C0 16.065 2.12531 18.3793 5.67866 18.3793Z" />
</svg>
