<svg width="28" height="30" viewBox="0 0 28 30" fill="white" xmlns="http://www.w3.org/2000/svg">
<path fill="white" d="M6.24961 25.4093C6.48164 25.4093 6.64453 25.1953 6.62437 24.9611L6.53086 23.8404L7.44609 24.4879C7.63125 24.6262 7.91132 24.5815 8.03484 24.3846C8.15296 24.1898 8.07961 23.9076 7.82625 23.7958L6.83015 23.3268L7.84007 22.844C8.08171 22.7343 8.14546 22.4756 8.04867 22.2712C7.93265 22.0669 7.62914 22.0275 7.44398 22.1658L6.53297 22.8145L6.63398 21.7022C6.66375 21.4563 6.48164 21.254 6.24961 21.254C5.98664 21.254 5.83125 21.4563 5.8514 21.7022L5.9407 22.8145L5.02218 22.1615C4.82953 22.0275 4.56445 22.0572 4.43883 22.2712C4.32281 22.4756 4.38656 22.7343 4.63031 22.844L5.64234 23.3247L4.6282 23.7979C4.38656 23.9097 4.3132 24.1781 4.43133 24.3846C4.54734 24.5911 4.82953 24.6262 5.02218 24.4976L5.9407 23.8563L5.86101 24.9611C5.84297 25.1953 5.98664 25.4093 6.24961 25.4093ZM12.7418 25.4093C12.9738 25.4093 13.1367 25.1953 13.1166 24.9611L13.023 23.8404L13.9383 24.4879C14.1234 24.6262 14.4035 24.5815 14.527 24.3846C14.6452 24.1898 14.5718 23.9076 14.3184 23.7958L13.3127 23.3268L14.3323 22.844C14.5739 22.7343 14.6377 22.4756 14.5409 22.2712C14.4248 22.0669 14.1213 22.0275 13.9362 22.1658L13.0252 22.8145L13.1262 21.7022C13.1559 21.4563 12.9738 21.254 12.7418 21.254C12.4788 21.254 12.3234 21.4563 12.3436 21.7022L12.4329 22.8145L11.5048 22.1615C11.3217 22.0275 11.0566 22.0572 10.931 22.2712C10.815 22.4756 10.8787 22.7343 11.1225 22.844L12.1345 23.3247L11.1204 23.7979C10.8787 23.9097 10.8054 24.1781 10.9235 24.3846C11.0395 24.5911 11.3217 24.6262 11.5048 24.4976L12.4329 23.8563L12.3532 24.9611C12.3352 25.1953 12.4788 25.4093 12.7418 25.4093ZM19.234 25.4093C19.466 25.4093 19.6289 25.1953 19.6087 24.9611L19.5056 23.8404L20.4305 24.4879C20.6156 24.6262 20.8936 24.5815 21.0192 24.3846C21.1373 24.1898 21.064 23.9076 20.8106 23.7958L19.8049 23.3268L20.8244 22.844C21.0661 22.7343 21.1298 22.4756 21.0309 22.2712C20.917 22.0669 20.6135 22.0275 20.4284 22.1658L19.5077 22.8145L19.6184 21.7022C19.6481 21.4563 19.466 21.254 19.234 21.254C18.971 21.254 18.8156 21.4563 18.8358 21.7022L18.9251 22.8145L17.9969 22.1615C17.8139 22.0275 17.5488 22.0572 17.4232 22.2712C17.3072 22.4756 17.3709 22.7343 17.6147 22.844L18.6267 23.3247L17.6126 23.7979C17.3709 23.9097 17.2976 24.1781 17.4157 24.3846C17.5317 24.5911 17.8139 24.6262 17.9969 24.4976L18.9251 23.8563L18.8454 24.9611C18.8273 25.1953 18.971 25.4093 19.234 25.4093ZM3.70664 29.8134C3.93867 29.8134 4.10156 29.5898 4.0814 29.3557L3.98789 28.2466L4.90312 28.8921C5.09789 29.0208 5.36836 28.976 5.49187 28.7791C5.61 28.5844 5.53664 28.3022 5.28328 28.1925L4.28718 27.731L5.29711 27.2482C5.53875 27.1385 5.6025 26.8722 5.5057 26.6754C5.38968 26.471 5.09578 26.4316 4.90101 26.5603L3.99 27.2186L4.09101 26.0967C4.12078 25.8529 3.93867 25.6486 3.70664 25.6486C3.44367 25.6486 3.28828 25.8529 3.30844 26.0967L3.39773 27.2186L2.47922 26.5582C2.28656 26.4316 2.02148 26.4614 1.89586 26.6754C1.77984 26.8722 1.84359 27.1289 2.08734 27.2482L3.09937 27.7289L2.08523 28.2042C1.84359 28.3139 1.77023 28.5747 1.88836 28.7791C2.00437 28.9952 2.28656 29.0304 2.47922 28.8921L3.39773 28.2508L3.31804 29.3557C3.3 29.5898 3.44367 29.8134 3.70664 29.8134ZM10.1988 29.8134C10.4309 29.8134 10.5937 29.5898 10.5736 29.3557L10.4801 28.2466L11.3953 28.8921C11.5805 29.0208 11.8605 28.976 11.9841 28.7791C12.1022 28.5844 12.0288 28.3022 11.7755 28.1925L10.7698 27.731L11.7893 27.2482C12.0309 27.1385 12.0947 26.8722 11.9979 26.6754C11.8819 26.471 11.5784 26.4316 11.3932 26.5603L10.4822 27.2186L10.5832 26.0967C10.613 25.8529 10.4309 25.6486 10.1988 25.6486C9.93586 25.6486 9.78047 25.8529 9.80062 26.0967L9.88993 27.2186L8.96179 26.5582C8.77875 26.4316 8.51367 26.4614 8.38805 26.6754C8.27203 26.8722 8.33578 27.1289 8.57953 27.2482L9.59156 27.7289L8.57742 28.2042C8.33578 28.3139 8.26242 28.5747 8.38054 28.7791C8.49656 28.9952 8.77875 29.0304 8.96179 28.8921L9.88993 28.2508L9.81023 29.3557C9.79219 29.5898 9.93586 29.8134 10.1988 29.8134ZM16.691 29.8134C16.923 29.8134 17.0859 29.5898 17.0658 29.3557L16.9627 28.2466L17.8875 28.8921C18.0727 29.0208 18.3506 28.976 18.4762 28.7791C18.5944 28.5844 18.521 28.3022 18.2677 28.1925L17.2619 27.731L18.2815 27.2482C18.5231 27.1385 18.5869 26.8722 18.488 26.6754C18.3741 26.471 18.0705 26.4316 17.8854 26.5603L16.9648 27.2186L17.0754 26.0967C17.1052 25.8529 16.923 25.6486 16.691 25.6486C16.428 25.6486 16.2727 25.8529 16.2928 26.0967L16.3821 27.2186L15.454 26.5582C15.2709 26.4316 15.0059 26.4614 14.8802 26.6754C14.7642 26.8722 14.828 27.1289 15.0717 27.2482L16.0837 27.7289L15.0696 28.2042C14.828 28.3139 14.7546 28.5747 14.8727 28.7791C14.9887 28.9952 15.2709 29.0304 15.454 28.8921L16.3821 28.2508L16.3024 29.3557C16.2844 29.5898 16.428 29.8134 16.691 29.8134Z" />
<path fill="white" d="M5.67866 19.4097H20.2786C24.2004 19.4097 27.1336 16.4285 27.1336 12.7179C27.1336 8.89734 24.0593 6.06352 20.0318 6.06352C18.5923 3.23227 15.9178 1.31836 12.3666 1.31836C7.87593 1.31836 4.23257 4.77328 3.79101 9.1336C1.63828 9.79266 0 11.6662 0 14.1916C0 17.0955 2.12531 19.4097 5.67866 19.4097Z" />
</svg>
