<svg width="23" height="28" viewBox="0 0 23 28" fill="white" xmlns="http://www.w3.org/2000/svg">
<path fill="white" d="M11.2057 10.9202C18.5201 10.9202 22.7758 9.0911 22.7758 6.52774C22.7758 4.18259 19.4862 2.75642 14.6109 2.75642C11.0742 2.75642 8.26874 3.39814 6.11437 4.36025C5.48648 4.64454 5.34492 5.27454 5.56429 5.71938C5.80382 6.22165 6.42351 6.37469 6.99351 6.15227C8.89171 5.39664 11.2652 4.66024 14.497 4.66024C18.3112 4.66024 20.6808 5.52813 20.6808 6.51602C20.6808 7.69657 16.8736 8.95353 11.1152 8.95353C5.19444 8.95353 2.08546 7.7997 2.08546 5.60173C2.08546 4.24611 3.34194 2.9172 6.65601 1.8822C7.30616 1.67993 7.56913 1.16173 7.38819 0.622201C7.20936 0.0826724 6.71882 -0.130139 5.99835 0.0796262C1.95539 1.23463 0 3.38665 0 5.65282C0 9.07797 3.87562 10.9202 11.2057 10.9202ZM11.5551 14.9012C15.2885 14.9012 18.731 14.2919 21.1533 13.3234C21.6703 13.1148 21.9035 12.5849 21.6619 12.122C21.434 11.6751 20.9531 11.5837 20.3667 11.7977C18.165 12.6191 14.9641 13.1816 11.5551 13.1816C9.01358 13.1816 6.10546 12.8631 3.81749 12.1942C3.23109 12.025 2.74898 12.2081 2.60531 12.704C2.45953 13.1988 2.72648 13.6637 3.3246 13.8447C5.80101 14.5476 8.87835 14.9012 11.5551 14.9012ZM12.3858 18.8334C15.4983 18.8078 18.4043 18.3604 21.1001 17.4665C21.7654 17.2471 21.9098 16.7022 21.7322 16.2693C21.5533 15.8148 21.0977 15.6522 20.4473 15.8598C17.8078 16.6994 15.1905 17.102 12.3605 17.102C11.1684 17.102 9.91476 17.0221 8.95382 16.8911C8.32265 16.8102 7.9289 17.0772 7.84804 17.5412C7.75546 18.0201 8.01398 18.4818 8.68241 18.5894C9.61007 18.7492 10.8862 18.8451 12.3858 18.8334ZM11.2645 22.5428C13.4311 22.791 16.1135 22.7155 18.3061 22.1326C18.8904 21.9794 19.1212 21.4642 18.9818 20.9971C18.8327 20.5044 18.3656 20.313 17.7504 20.4599C15.8604 20.9352 13.6099 21.0951 11.5392 20.8584C10.9134 20.7977 10.4887 21.0955 10.4259 21.5776C10.3652 22.045 10.6111 22.4683 11.2645 22.5428ZM10.4634 26.3673C11.227 26.4686 12.0984 26.459 12.9023 26.3652C13.4836 26.2928 13.7761 25.9213 13.7367 25.4266C13.6877 24.9766 13.3303 24.6552 12.7076 24.7298C12.0377 24.8139 11.2739 24.8139 10.6198 24.7415C10.0355 24.6669 9.65882 24.9883 9.60023 25.4287C9.55124 25.8946 9.84374 26.3045 10.4634 26.3673Z" />
</svg>
